# xmcd
#
# Track frame offsets: 
#        150
#        15679
#        33173
#        46085
#        58837
#        72749
#        89297
#        103029
#        119020
#        132649
#        148138
#
# Disc length: 2222 seconds
#
# Revision: 0
# Processed by: cddbd v1.5.1PL2 Copyright (c) Steve Scherf et al.
# Submitted via: ExactAudioCopy v0.95a4
#
DISCID=a608ac0b
DTITLE=Blaine Larsen - Off To Join The World
DYEAR=2004
DGENRE=Country
TTITLE0=The Best Man
TTITLE1=In My High School
TTITLE2=That's All I've Got To Say About That
TTITLE3=Teaching Me How To Love You (With Joey Martin)
TTITLE4=I've Been In Mexico
TTITLE5=If Merle Would Sing My Song (With Merle Haggard)
TTITLE6=Yessireebob
TTITLE7=The Man He'll Never Be
TTITLE8=That's Just Me
TTITLE9=Off To Join The World (The Circus Song)
TTITLE10=How Do You Get That Lonely
EXTD=
EXTT0=
EXTT1=
EXTT2=
EXTT3=
EXTT4=
EXTT5=
EXTT6=
EXTT7=
EXTT8=
EXTT9=
EXTT10=
PLAYORDER=
